<svg viewBox="0 0 1200 630" xmlns="http://www.w3.org/2000/svg" width="1200" height="630">

<rect width="1200" height="630" fill="#0B1F3A"/>

<!-- Grid lines -->
<g stroke="#ffffff" stroke-opacity="0.04" stroke-width="0.8">
  <line x1="0" y1="70" x2="1200" y2="70"/><line x1="0" y1="140" x2="1200" y2="140"/>
  <line x1="0" y1="210" x2="1200" y2="210"/><line x1="0" y1="280" x2="1200" y2="280"/>
  <line x1="0" y1="350" x2="1200" y2="350"/><line x1="0" y1="420" x2="1200" y2="420"/>
  <line x1="0" y1="490" x2="1200" y2="490"/><line x1="0" y1="560" x2="1200" y2="560"/>
  <line x1="70" y1="0" x2="70" y2="630"/><line x1="140" y1="0" x2="140" y2="630"/>
  <line x1="210" y1="0" x2="210" y2="630"/><line x1="280" y1="0" x2="280" y2="630"/>
  <line x1="350" y1="0" x2="350" y2="630"/><line x1="420" y1="0" x2="420" y2="630"/>
  <line x1="490" y1="0" x2="490" y2="630"/><line x1="560" y1="0" x2="560" y2="630"/>
  <line x1="630" y1="0" x2="630" y2="630"/><line x1="700" y1="0" x2="700" y2="630"/>
  <line x1="770" y1="0" x2="770" y2="630"/><line x1="840" y1="0" x2="840" y2="630"/>
  <line x1="910" y1="0" x2="910" y2="630"/><line x1="980" y1="0" x2="980" y2="630"/>
  <line x1="1050" y1="0" x2="1050" y2="630"/><line x1="1120" y1="0" x2="1120" y2="630"/>
</g>

<!-- Glow circles -->
<circle cx="1010" cy="350" r="400" fill="#F4C430" fill-opacity="0.07"/>
<circle cx="1010" cy="350" r="280" fill="#F4C430" fill-opacity="0.06"/>

<!-- Lemon decorativo grande (derecha) -->
<g transform="translate(820, 50)">
  <path d="M230 94 C 290 66, 348 84, 334 136 C 304 128, 268 110, 230 94 Z" fill="#67C23A"/>
  <line x1="222" y1="104" x2="204" y2="140" stroke="#67C23A" stroke-width="13" stroke-linecap="round"/>
  <path d="M204 140 C 76 132, 38 264, 94 348 C 156 428, 298 414, 330 306 C 354 218, 306 148, 204 140 Z" fill="none" stroke="#F4C430" stroke-width="32" stroke-linecap="round" stroke-linejoin="round"/>
  <path d="M130 200 C 106 232, 106 282, 120 316" stroke="#F4C430" stroke-width="16" fill="none" stroke-linecap="round"/>
  <circle cx="254" cy="216" r="7" fill="#F4C430"/>
  <circle cx="288" cy="198" r="6" fill="#F4C430"/>
  <circle cx="272" cy="242" r="6" fill="#F4C430"/>
  <circle cx="306" cy="242" r="7" fill="#F4C430"/>
  <circle cx="172" cy="306" r="7" fill="#F4C430"/>
  <circle cx="206" cy="328" r="6" fill="#F4C430"/>
  <circle cx="190" cy="284" r="5" fill="#F4C430"/>
</g>

<!-- Logo pequeño (top left) -->
<rect x="84" y="70" width="90" height="90" rx="20" fill="#0B1F3A" stroke="#F4C43066" stroke-width="1.5"/>
<g transform="translate(89, 75) scale(0.42)">
  <path d="M230 94 C 290 66, 348 84, 334 136 C 304 128, 268 110, 230 94 Z" fill="#67C23A"/>
  <line x1="222" y1="104" x2="204" y2="140" stroke="#67C23A" stroke-width="13" stroke-linecap="round"/>
  <path d="M204 140 C 76 132, 38 264, 94 348 C 156 428, 298 414, 330 306 C 354 218, 306 148, 204 140 Z" fill="none" stroke="#F4C430" stroke-width="32" stroke-linecap="round" stroke-linejoin="round"/>
  <path d="M130 200 C 106 232, 106 282, 120 316" stroke="#F4C430" stroke-width="16" fill="none" stroke-linecap="round"/>
  <circle cx="254" cy="216" r="7" fill="#F4C430"/>
  <circle cx="288" cy="198" r="6" fill="#F4C430"/>
  <circle cx="172" cy="306" r="7" fill="#F4C430"/>
</g>

<!-- Wordmark -->
<text x="190" y="128" font-family="Arial Black, Impact, sans-serif" font-size="30" font-weight="900" fill="#ffffff" letter-spacing="2">LIMONADA</text>
<text x="190" y="158" font-family="Arial Black, Impact, sans-serif" font-size="24" font-weight="900" fill="#F4C430" letter-spacing="5">— WEB —</text>

<!-- Headline -->
<text x="84" y="315" font-family="Arial Black, Impact, sans-serif" font-size="92" font-weight="900" fill="#ffffff" letter-spacing="-2">Exprimimos</text>
<text x="84" y="420" font-family="Arial Black, Impact, sans-serif" font-size="92" font-weight="900" fill="#F4C430" letter-spacing="-2">internet</text>
<text x="84" y="508" font-family="Georgia, 'Times New Roman', serif" font-style="italic" font-size="66" fill="#ffffffcc">para tu negocio.</text>

<!-- Footer -->
<line x1="84" y1="554" x2="720" y2="554" stroke="#F4C430" stroke-opacity="0.25" stroke-width="1"/>
<text x="84" y="592" font-family="Courier New, monospace" font-size="22" fill="#ffffff77" letter-spacing="3">limonadaweb.com</text>
<text x="580" y="592" font-family="Courier New, monospace" font-size="18" fill="#ffffff44" letter-spacing="2">Agencia digital · Málaga</text>

</svg>
