<svg xmlns="http://www.w3.org/2000/svg" viewBox="0 0 100 100">
  <rect width="100" height="100" rx="22" fill="#0B1F3A"/>
  <path d="M58 22 C 68 18, 76 22, 74 32 C 68 30, 62 26, 58 22 Z" fill="#67C23A"/>
  <line x1="56" y1="26" x2="52" y2="34" stroke="#67C23A" stroke-width="3" stroke-linecap="round"/>
  <path d="M52 34 C 26 32, 18 60, 30 78 C 44 92, 74 88, 80 68 C 86 50, 74 36, 52 34 Z" fill="none" stroke="#F4C430" stroke-width="6" stroke-linecap="round" stroke-linejoin="round"/>
  <path d="M38 50 C 32 56, 32 66, 36 72" stroke="#F4C430" stroke-width="3.5" fill="none" stroke-linecap="round"/>
  <circle cx="60" cy="52" r="1.6" fill="#F4C430"/>
  <circle cx="66" cy="48" r="1.4" fill="#F4C430"/>
  <circle cx="64" cy="58" r="1.4" fill="#F4C430"/>
  <circle cx="70" cy="58" r="1.5" fill="#F4C430"/>
  <circle cx="44" cy="70" r="1.6" fill="#F4C430"/>
  <circle cx="50" cy="76" r="1.4" fill="#F4C430"/>
</svg>
